HIERARCHY
ROOT Hips
{
	OFFSET 0.000000 0.000000 0.000000
	CHANNELS 6 Xposition Yposition Zposition Xrotation Yrotation Zrotation
	JOINT LeftUpLeg_virtual
	{
		OFFSET 0.000000 0.000000 0.000000
		CHANNELS 3 Xrotation Yrotation Zrotation
		JOINT LeftUpLeg
		{
			OFFSET 10.205400 -3.823500 0.155100
			CHANNELS 3 Xrotation Yrotation Zrotation
			JOINT LeftLeg
			{
				OFFSET 0.708757 -12.982077 0.567790
				CHANNELS 3 Xrotation Yrotation Zrotation
				JOINT LeftFoot
				{
					OFFSET -0.708756 -10.717838 -2.184338
					CHANNELS 3 Xrotation Yrotation Zrotation
					JOINT LeftToeBase
					{
						OFFSET 0.108149 -7.191104 7.560241
						CHANNELS 3 Xrotation Yrotation Zrotation
						JOINT LeftToe_End
						{
							OFFSET 0.070230 0.081724 4.490308
							CHANNELS 3 Xrotation Yrotation Zrotation
							End Site
							{
								OFFSET 0 0 0
							}
						}
					}
				}
			}
		}
	}
	JOINT RightUpLeg_virtual
	{
		OFFSET 0.000000 0.000000 0.000000
		CHANNELS 3 Xrotation Yrotation Zrotation
		JOINT RightUpLeg
		{
			OFFSET -10.205400 -3.823500 0.005500
			CHANNELS 3 Xrotation Yrotation Zrotation
			JOINT RightLeg
			{
				OFFSET -0.708756 -12.982134 0.610632
				CHANNELS 3 Xrotation Yrotation Zrotation
				JOINT RightFoot
				{
					OFFSET 0.708754 -10.717769 -1.945823
					CHANNELS 3 Xrotation Yrotation Zrotation
					JOINT RightToeBase
					{
						OFFSET -0.108140 -7.191069 7.372968
						CHANNELS 3 Xrotation Yrotation Zrotation
						JOINT RightToe_End
						{
							OFFSET -0.070227 0.081735 4.479403
							CHANNELS 3 Xrotation Yrotation Zrotation
							End Site
							{
								OFFSET 0 0 0
							}
						}
					}
				}
			}
		}
	}
	JOINT Spine_virtual
	{
		OFFSET 0.000000 0.000000 0.000000
		CHANNELS 3 Xrotation Yrotation Zrotation
		JOINT Spine
		{
			OFFSET 0.000000 6.876099 0.125700
			CHANNELS 3 Xrotation Yrotation Zrotation
			JOINT Spine1
			{
				OFFSET 0.000000 5.730043 0.104720
				CHANNELS 3 Xrotation Yrotation Zrotation
				JOINT Spine1_split
				{
					OFFSET 0.000000 5.730043 0.104720
					CHANNELS 3 Xrotation Yrotation Zrotation
					JOINT Spine2
					{
						OFFSET 0.000000 5.730043 0.104720
						CHANNELS 3 Xrotation Yrotation Zrotation
						JOINT Neck_virtual
						{
							OFFSET 0.000000 0.000000 0.000000
							CHANNELS 3 Xrotation Yrotation Zrotation
							JOINT Neck
							{
								OFFSET 0.000000 10.314075 0.188496
								CHANNELS 3 Xrotation Yrotation Zrotation
								JOINT Head
								{
									OFFSET 0.000000 7.643700 -2.377400
									CHANNELS 3 Xrotation Yrotation Zrotation
									JOINT HeadTop_End
									{
										OFFSET 0.000000 43.788605 -13.619600
										CHANNELS 3 Xrotation Yrotation Zrotation
										End Site
										{
											OFFSET 0 0 0
										}
									}
								}
							}
						}
						JOINT LeftShoulder_virtual
						{
							OFFSET 0.000000 0.000000 0.000000
							CHANNELS 3 Xrotation Yrotation Zrotation
							JOINT LeftShoulder
							{
								OFFSET 2.196100 4.412489 0.087492
								CHANNELS 3 Xrotation Yrotation Zrotation
								JOINT LeftShoulder_split
								{
									OFFSET 2.196100 4.412489 0.087492
									CHANNELS 3 Xrotation Yrotation Zrotation
									JOINT LeftArm
									{
										OFFSET 8.771219 -2.981674 -0.026999
										CHANNELS 3 Xrotation Yrotation Zrotation
										JOINT LeftForeArm
										{
											OFFSET 8.512804 0.000000 -0.000000
											CHANNELS 3 Xrotation Yrotation Zrotation
											JOINT LeftHand
											{
												OFFSET 18.484802 0.000000 -0.000000
												CHANNELS 3 Xrotation Yrotation Zrotation
												End Site
												{
													OFFSET 0 0 0
												}
											}
										}
									}
								}
							}
						}
						JOINT RightShoulder_virtual
						{
							OFFSET 0.000000 0.000000 0.000000
							CHANNELS 3 Xrotation Yrotation Zrotation
							JOINT RightShoulder
							{
								OFFSET -2.196100 4.412496 0.070690
								CHANNELS 3 Xrotation Yrotation Zrotation
								JOINT RightShoulder_split
								{
									OFFSET -2.196100 4.412496 0.070690
									CHANNELS 3 Xrotation Yrotation Zrotation
									JOINT RightArm
									{
										OFFSET -8.771282 -2.981682 -0.094208
										CHANNELS 3 Xrotation Yrotation Zrotation
										JOINT RightForeArm
										{
											OFFSET -8.494598 0.000000 0.000000
											CHANNELS 3 Xrotation Yrotation Zrotation
											JOINT RightHand
											{
												OFFSET -18.483803 0.000000 0.000001
												CHANNELS 3 Xrotation Yrotation Zrotation
												End Site
												{
													OFFSET 0 0 0
												}
											}
										}
									}
								}
							}
						}
					}
				}
			}
		}
	}
}
MOTION
Frames: 7
Frame Time: 0.03333333
-0.322385 27.938492 -0.061743 0.000000 0.000000 0.000000 -4.127584 -49.519111 0.654558 -30.927042 9.102857 22.223359 63.700530 -7.186185 6.926723 -32.753294 -3.821276 -17.392933 -8.947631 -0.121967 0.000475 0.000000 0.000000 0.000000 -5.566087 -45.689847 1.347523 -14.356395 -11.550197 -34.508807 55.434526 -7.317965 -14.152663 -35.169658 -11.511526 26.251236 -0.526755 1.007340 -1.132662 0.000000 0.000000 0.000000 -4.005871 -47.179057 1.063583 10.127230 7.721690 -1.626451 2.190758 1.688161 -1.240125 0.117005 -1.309504 0.783434 0.000000 0.000000 0.000000 2.146989 1.385231 -0.726046 -0.756597 13.621819 4.040001 7.606971 21.637421 -5.889262 0.000000 0.000000 0.000000 3.504875 1.011260 -0.942389 1.546039 3.901272 -6.293727 -3.177030 -1.299428 -1.540793 -51.012251 3.028340 -50.176137 179.785947 -71.770781 -178.249619 0.000000 0.000000 0.000000 3.546180 1.500302 -0.538635 3.761463 11.285777 -6.233888 -1.303338 -2.427811 -0.280236 -48.592083 29.273839 86.284591 178.475411 65.138421 -178.731857 0.000000 0.000000 0.000000 
-0.246524 27.792320 -0.102131 0.000000 0.000000 0.000000 -4.421088 -49.776151 0.525317 -31.023225 8.679572 21.742338 63.642302 -5.681028 6.394033 -33.303019 -3.616393 -15.305919 -8.627098 -0.004816 -0.946146 0.000000 0.000000 0.000000 -5.448030 -45.214807 1.335938 -14.697737 -11.605133 -34.705202 56.218232 -6.981246 -14.000660 -36.166244 -11.256895 26.295089 0.371994 1.068913 -1.274176 0.000000 0.000000 0.000000 -4.420218 -46.868591 0.805220 10.483156 7.700078 -1.629447 2.343256 1.559058 -1.112619 0.525630 -1.605265 1.007647 0.000000 0.000000 0.000000 2.109552 1.249340 -0.587569 -0.580242 13.548888 3.821995 8.038211 21.515782 -5.758783 0.000000 0.000000 0.000000 3.444477 0.952586 -0.904567 1.561796 4.009450 -6.651240 -3.024314 -1.151590 -1.277756 -50.973145 3.158470 -50.305539 179.967261 -72.058537 -178.162206 0.000000 0.000000 0.000000 3.606217 1.422910 -0.511763 3.885754 11.714113 -6.206410 -1.670339 -2.987641 -0.327349 -50.314192 28.520918 86.523962 178.815350 65.229755 -179.247824 0.000000 0.000000 0.000000 
-0.193639 27.546972 -0.095165 0.000000 0.000000 0.000000 -5.057533 -50.294644 0.099452 -32.085220 7.717957 21.623708 64.937914 -4.081177 5.932003 -31.573250 -3.497129 -14.565640 -7.715903 0.026287 -1.478976 0.000000 0.000000 0.000000 -5.706732 -45.037728 0.903957 -15.325573 -11.873048 -34.651114 57.634591 -6.787363 -13.769492 -37.026473 -10.936753 26.508680 0.431350 1.130762 -1.333499 0.000000 0.000000 0.000000 -5.251983 -46.878078 0.185710 10.831177 7.672703 -1.448748 2.428015 1.381841 -0.925483 0.870900 -1.501254 1.104544 0.000000 0.000000 0.000000 2.055082 1.059812 -0.466199 -0.619772 13.405829 3.550224 8.522684 21.320437 -5.561528 0.000000 0.000000 0.000000 3.393001 0.817738 -0.809967 1.587044 4.028653 -7.215443 -2.689956 -1.107427 -0.981829 -51.133894 3.581782 -50.602495 -179.709982 -72.943319 -177.938599 0.000000 0.000000 0.000000 3.621321 1.257498 -0.433402 3.929353 11.967178 -6.144928 -2.138870 -3.158333 -0.264182 -51.831341 26.950706 85.964665 179.239477 65.868097 -179.980594 0.000000 0.000000 0.000000 
-0.113151 27.265619 -0.084553 0.000000 0.000000 0.000000 -5.954588 -50.835247 -0.495174 -33.527196 6.115640 21.573417 66.774538 -3.090115 5.754762 -27.786743 -4.006162 -15.715386 -9.085669 -0.175533 -0.285352 0.000000 0.000000 0.000000 -6.409918 -45.345237 0.253744 -16.146265 -12.260579 -34.563783 59.277197 -6.649111 -13.594024 -37.913263 -10.514936 26.611665 -0.104680 1.178546 -1.202971 0.000000 0.000000 0.000000 -6.321799 -47.368950 -0.601465 11.082399 7.682276 -1.117472 2.400548 1.240859 -0.738290 0.953474 -0.995301 0.941482 0.000000 0.000000 0.000000 2.011182 0.886660 -0.398727 -0.875453 13.204808 3.272144 8.900514 21.049033 -5.353068 0.000000 0.000000 0.000000 3.326762 0.681655 -0.643490 1.607256 4.010916 -7.813594 -2.348045 -1.301268 -0.672789 -51.385706 4.038106 -50.968781 -179.371778 -73.710179 -177.702056 0.000000 0.000000 0.000000 3.551525 1.060231 -0.329799 3.889244 12.056602 -6.154540 -2.734723 -2.830213 0.106036 -52.413721 25.122553 84.823464 179.530648 66.730689 179.379318 0.000000 0.000000 0.000000 
0.032109 26.998224 -0.037891 0.000000 0.000000 0.000000 -7.109955 -51.331788 -1.141343 -34.498729 4.057374 21.182122 68.501012 -3.041884 5.981072 -23.459733 -5.616133 -18.388503 -13.072344 -0.753643 2.525769 0.000000 0.000000 0.000000 -7.551436 -46.082480 -0.423520 -17.122509 -12.552169 -34.731618 60.990318 -6.431811 -13.516213 -38.887382 -9.839247 26.365278 -0.306901 1.183935 -0.823255 0.000000 0.000000 0.000000 -7.583682 -48.273974 -1.397760 11.244360 7.732917 -0.738439 2.303862 1.178151 -0.592420 0.692091 -0.411425 0.730887 0.000000 0.000000 0.000000 2.014097 0.797903 -0.379808 -1.262253 13.001349 3.032568 9.085327 20.787114 -5.212344 0.000000 0.000000 0.000000 3.256836 0.617689 -0.412771 1.632693 4.022891 -8.371551 -1.865648 -1.434474 -0.480262 -51.636910 4.289756 -51.318281 -179.245952 -73.953627 -177.702070 0.000000 0.000000 0.000000 3.417788 0.882121 -0.250651 3.825798 12.074134 -6.346090 -3.318093 -1.888867 0.523310 -51.927053 23.273642 83.315173 179.580563 67.440441 179.060335 0.000000 0.000000 0.000000 
0.229492 26.790611 0.034029 0.000000 0.000000 0.000000 -8.381026 -51.766202 -1.700389 -35.058859 1.931732 20.486410 70.441018 -3.638401 6.259686 -20.072548 -8.003185 -21.370041 -15.879228 -1.432632 4.991811 0.000000 0.000000 0.000000 -8.897269 -47.208178 -0.980333 -18.334688 -12.566418 -35.413561 62.722467 -6.035410 -13.456620 -39.436303 -8.837262 26.033900 -0.191190 1.167074 -0.337489 0.000000 0.000000 0.000000 -8.822366 -49.447076 -2.057589 11.330714 7.803021 -0.364831 2.215815 1.183231 -0.494622 0.328896 0.118367 0.489430 0.000000 0.000000 0.000000 2.092644 0.834450 -0.389388 -1.647818 12.857319 2.796437 9.036013 20.711505 -5.226173 0.000000 0.000000 0.000000 3.192032 0.660423 -0.153181 1.666087 4.033962 -8.863028 -1.419675 -1.622133 -0.287600 -51.740981 4.177943 -51.503263 -179.437621 -73.555523 -178.024168 0.000000 0.000000 0.000000 3.276003 0.777765 -0.223666 3.772132 12.143519 -6.788143 -3.680512 -0.671951 1.003421 -50.688661 21.948637 81.851300 179.325592 67.566649 179.174590 0.000000 0.000000 0.000000 
0.450009 26.624594 0.178997 0.000000 0.000000 0.000000 -9.585908 -52.250257 -2.203863 -35.405928 0.030362 19.909450 72.851064 -4.471885 6.259489 -17.895198 -10.352955 -24.088721 -14.878483 -1.635491 5.976159 0.000000 0.000000 0.000000 -10.301876 -48.662741 -1.500607 -19.629788 -12.136631 -36.612990 64.049614 -5.253586 -13.514454 -39.082971 -7.716725 26.467509 -0.484804 1.109652 0.015646 0.000000 0.000000 0.000000 -10.124467 -50.741264 -2.681213 11.406494 7.733811 -0.043470 2.206168 1.217052 -0.467855 0.118508 0.106304 0.303290 0.000000 0.000000 0.000000 2.217143 0.959660 -0.409631 -1.910068 12.848745 2.573843 8.819791 20.866778 -5.470424 0.000000 0.000000 0.000000 3.202446 0.776397 0.045262 1.707599 3.945259 -9.184619 -1.196932 -1.851431 -0.101660 -51.551915 3.842299 -51.335022 -179.833403 -72.809468 -178.512731 0.000000 0.000000 0.000000 3.204691 0.767715 -0.255603 3.754222 12.374398 -7.377619 -3.747781 0.233932 1.612328 -49.415104 21.305944 80.376881 179.145671 66.794838 179.341957 0.000000 0.000000 0.000000 
